<?xml version="1.0" encoding="UTF-8" standalone="no"?>
<!DOCTYPE svg PUBLIC "-//W3C//DTD SVG 1.1//EN" "http://www.w3.org/Graphics/SVG/1.1/DTD/svg11.dtd">
<svg width="100%" height="100%" viewBox="0 0 3053 2100" version="1.1" xmlns="http://www.w3.org/2000/svg" xmlns:xlink="http://www.w3.org/1999/xlink" xml:space="preserve" xmlns:serif="http://www.serif.com/" style="fill-rule:evenodd;clip-rule:evenodd;stroke-linejoin:round;stroke-miterlimit:2;">
    <g transform="matrix(1,0,0,1,163.974535,-236.87867)">
        <g transform="matrix(4.456558,0,0,4.456558,-7002.562524,-3542.109396)">
            <path d="M1534.5,1105.961L1620.737,1105.961C1623.013,1105.961 1625.064,1104.586 1625.928,1102.48C1632.934,1085.395 1663.842,1010.023 1676.284,979.68C1677.149,977.571 1679.204,976.195 1681.484,976.199C1683.764,976.203 1685.814,977.586 1686.672,979.698C1707.317,1030.54 1783.874,1219.077 1808.1,1278.736C1809.042,1281.058 1811.41,1282.473 1813.901,1282.203C1816.392,1281.933 1818.402,1280.044 1818.826,1277.575C1825.446,1238.99 1840.215,1152.909 1846.986,1113.444C1847.415,1110.945 1849.466,1109.045 1851.99,1108.807C1854.514,1108.57 1856.883,1110.055 1857.77,1112.43C1869.63,1144.19 1892.901,1206.508 1903.717,1235.476C1904.558,1237.727 1906.74,1239.193 1909.142,1239.121C1911.544,1239.048 1913.634,1237.453 1914.337,1235.155C1924.128,1203.159 1946.352,1130.533 1958.024,1092.393C1958.795,1089.874 1961.215,1088.23 1963.841,1088.443C1966.467,1088.656 1968.591,1090.667 1968.946,1093.278C1976.016,1145.212 1991.5,1258.961 1991.5,1258.961C1991.5,1258.961 1998.5,1319.961 2067.5,1318.961C2136.5,1317.961 2145.5,1268.961 2145.5,1268.961C2145.5,1268.961 2147.825,1161.22 2148.382,1135.45C2148.447,1132.4 2150.939,1129.961 2153.99,1129.961L2219.5,1129.961L2219.5,1096.961L2110.11,1096.961C2107.012,1096.961 2104.5,1099.473 2104.5,1102.571C2104.5,1124.505 2104.5,1204.618 2104.5,1232.398C2104.5,1243.013 2100.535,1253.244 2093.382,1261.087C2088.203,1266.746 2081.036,1271.564 2071.5,1271.961C2047.5,1272.961 2037.5,1248.961 2037.5,1248.961C2037.5,1248.961 1998.373,995.702 1986.122,916.405C1985.725,913.835 1983.613,911.874 1981.02,911.669C1978.428,911.464 1976.034,913.068 1975.238,915.544C1960.354,961.826 1926.743,1066.344 1914.273,1105.118C1913.549,1107.37 1911.489,1108.926 1909.125,1109.007C1906.76,1109.088 1904.599,1107.677 1903.723,1105.479C1890.138,1071.426 1856.206,986.371 1841.491,949.485C1840.571,947.179 1838.245,945.752 1835.773,945.976C1833.301,946.201 1831.27,948.024 1830.781,950.457C1823.619,986.07 1808.007,1063.709 1801.012,1098.494C1800.53,1100.895 1798.545,1102.706 1796.11,1102.966C1793.674,1103.227 1791.352,1101.877 1790.372,1099.633C1768.845,1050.323 1704.815,903.657 1685.85,860.216C1684.946,858.145 1682.888,856.819 1680.628,856.852C1678.369,856.884 1676.349,858.269 1675.505,860.365C1658.104,903.582 1600.673,1046.213 1590.915,1070.447C1590.06,1072.57 1588.001,1073.961 1585.711,1073.961L1534.5,1073.961L1534.5,1105.961Z" style="fill:white;"/>
        </g>
    </g>
</svg>
